<svg xmlns="http://www.w3.org/2000/svg" viewBox="0 0 205.5 205.5"><defs><style>.cls-1{fill:#fff;}</style></defs><g id="Layer_2" data-name="Layer 2"><g id="Layer_1-2" data-name="Layer 1"><path class="cls-1" d="M200.37,97.61H176.75L191,83.38a5.14,5.14,0,0,0-7.26-7.27l-21.5,21.5H146.11l8.54-8.54a5.13,5.13,0,0,0-7.26-7.26l-15.81,15.8H115.15l31-31h30.41a5.14,5.14,0,1,0,0-10.28H156.41l19-19a5.14,5.14,0,0,0-7.27-7.26l-19,19V29a5.14,5.14,0,1,0-10.27,0V59.37l-31,31V73.93L123.7,58.12a5.14,5.14,0,0,0-7.27-7.27l-8.54,8.55V43.29l21.5-21.5a5.14,5.14,0,0,0-7.26-7.27L107.89,28.76V5.14a5.14,5.14,0,1,0-10.28,0V28.76L83.38,14.52a5.14,5.14,0,0,0-7.27,7.26l21.5,21.51v16.1l-8.54-8.54a5.13,5.13,0,0,0-7.26,7.26l15.8,15.81V90.35l-31-31V29a5.14,5.14,0,1,0-10.28,0V49.1l-19-19a5.14,5.14,0,0,0-7.26,7.27l19,19H29a5.14,5.14,0,1,0,0,10.27H59.37l31,31H73.93L58.12,81.8a5.14,5.14,0,0,0-7.27,7.27l8.55,8.54H43.29l-21.5-21.5a5.13,5.13,0,0,0-7.26,7.26L28.76,97.61H5.14a5.14,5.14,0,1,0,0,10.28H28.76L14.52,122.13a5.14,5.14,0,1,0,7.27,7.26l21.5-21.5H59.4l-8.55,8.54a5.14,5.14,0,0,0,7.27,7.27l15.81-15.81H90.35l-31,31H29a5.14,5.14,0,1,0,0,10.27H49.1l-19,19a5.14,5.14,0,0,0,7.27,7.27l19-19v20.13a5.14,5.14,0,0,0,10.28,0V146.13l31-31v16.43L81.81,147.39a5.14,5.14,0,1,0,7.27,7.26l8.54-8.54v16.1l-21.5,21.5A5.14,5.14,0,0,0,83.39,191l14.24-14.24v23.63a5.14,5.14,0,0,0,10.27,0V176.75L122.14,191a5.14,5.14,0,1,0,7.27-7.26l-21.52-21.5V146.11l8.54,8.54a5.14,5.14,0,0,0,7.27-7.26l-15.81-15.81V115.15l31,31v30.41a5.14,5.14,0,1,0,10.27,0V156.41l19,19a5.14,5.14,0,0,0,7.27-7.27l-19-19h20.14a5.14,5.14,0,0,0,0-10.27H146.13l-31-31h16.43l15.81,15.81a5.14,5.14,0,0,0,7.27-7.27l-8.55-8.54h16.11l21.49,21.5a5.14,5.14,0,1,0,7.27-7.26l-14.23-14.24h23.62a5.14,5.14,0,0,0,0-10.28Z"/></g></g></svg>